# xmcd
#
# Track frame offsets:
#	150
#	14501
#	26314
#	45108
#	64436
#	86471
#	100252
#	112278
#	127990
#	143458
#	164110
#	186753
#	201288
#	216702
#	231115
#
# Disc length: 3206 seconds
#
# Revision: 0
# Processed by: cddbd v1.5.2PL0 Copyright (c) Steve Scherf et al.
# Submitted via: EZCDAudioConverter 2.1.7.1
#
DISCID=d60c840f
DTITLE=V/A - There Is A Light That Never Goes Out
DYEAR=2012
DGENRE=MOJO
TTITLE0=Felt - Sunlight Bathed The Golden Glow
TTITLE1=Weather Prophets - Almost Prayed
TTITLE2=Hurrah! - Sweet Sanity
TTITLE3=The Woodentops - Well Well Well
TTITLE4=Close Lobsters - Nature Thing
TTITLE5=The Nightingales - Crafty Fag
TTITLE6=The Flatmates - I Could Be In Heaven
TTITLE7=The Go-Betweens - Cattle And Cane
TTITLE8=Billy Bragg - Levi Stubbs' Tears
TTITLE9=Martin Stephenson and The Daintees - Crocodile Cryer
TTITLE10=Television Personalities - How I Learned To Love The... Bomb
TTITLE11=The La's - Open Your Heart
TTITLE12=Blue Aeroplanes - Action Painting
TTITLE13=The Dentists - Strawberries Are Growing In My Garden (And It's Winter
TTITLE13=time)
TTITLE14=The Chesterfields - Completely And Utterly
EXTD=
EXTT0=
EXTT1=
EXTT2=
EXTT3=
EXTT4=
EXTT5=
EXTT6=
EXTT7=
EXTT8=
EXTT9=
EXTT10=
EXTT11=
EXTT12=
EXTT13=
EXTT14=
PLAYORDER=
